<svg xmlns="http://www.w3.org/2000/svg" viewBox="0 0 32 32" fill="none">
  <rect width="32" height="32" rx="8" fill="#569EE6"/>
  <path d="M8 12h16M8 12a2 2 0 01-2-2V8a2 2 0 012-2h16a2 2 0 012 2v2a2 2 0 01-2 2M8 12a2 2 0 00-2 2v2a2 2 0 002 2h16a2 2 0 002-2v-2a2 2 0 00-2-2m0 8H8m0 0a2 2 0 01-2-2m2 2a2 2 0 00-2 2v2a2 2 0 002 2h16a2 2 0 002-2v-2a2 2 0 00-2-2m0 0H8" stroke="white" stroke-width="1.5" stroke-linecap="round" stroke-linejoin="round"/>
  <circle cx="22" cy="9" r="1" fill="white"/>
  <circle cx="22" cy="15" r="1" fill="white"/>
  <circle cx="22" cy="25" r="1" fill="white"/>
</svg>
